<!-- <svg width="16" height="16" viewBox="0 0 16 16" fill="none" xmlns="http://www.w3.org/2000/svg">
<path d="M 7 -2 H -1 C -3 -2 -3 -2 -3 0 V 14 C -3 16 -3 16 -1 16 H 14 C 16 16 16 16 16 14 V 0 C 16 -2 16 -2 14 -2 Z M 5.2222 11.4444 L 0.7778 7 L 2.0311 5.7467 L 5.2222 8.9289 L 11.9689 2.1822 L 13.2222 3.4444 L 5.2222 11.4444 Z" fill="#005FF8"/>
</svg> -->

<svg width="16" height="16" viewBox="0 0 16 16" fill="none" xmlns="http://www.w3.org/2000/svg">
<path d="M14.2222 0H1.77778C0.791111 0 0 0.8 0 1.77778V14.2222C0 15.2 0.791111 16 1.77778 16H14.2222C15.2089 16 16 15.2 16 14.2222V1.77778C16 0.8 15.2089 0 14.2222 0ZM6.22222 12.4444L1.77778 8L3.03111 6.74667L6.22222 9.92889L12.9689 3.18222L14.2222 4.44444L6.22222 12.4444Z" fill="#005FF8"/>
</svg>
